<?xml version="1.0" encoding="UTF-8" standalone="no"?>
<!-- Created with Inkscape (http://www.inkscape.org/) -->

<svg
   version="1.1"
   id="svg132"
   width="20.619507"
   height="29.567524"
   viewBox="0 0 20.619507 29.567524"
   xmlns="http://www.w3.org/2000/svg"
   xmlns:svg="http://www.w3.org/2000/svg">
  <defs
     id="defs136">
    <clipPath
       clipPathUnits="userSpaceOnUse"
       id="clipPath1012">
      <path
         d="m 540.115,292.933 c -0.437,-2.836 -0.446,-5.927 -0.026,-9.258 v 0 c 0.27,-2.159 1.632,-4.517 3.371,-5.839 v 0 c 1.341,-1.02 2.683,-1.919 4.027,-2.695 v 0 c 1.344,-0.776 2.687,-1.429 4.029,-1.957 v 0 c 1.742,-0.687 3.112,0.094 3.394,1.934 v 0 c 0.438,2.836 0.447,5.927 0.025,9.258 v 0 c -0.269,2.159 -1.631,4.518 -3.37,5.839 v 0 c -1.341,1.021 -2.684,1.92 -4.028,2.695 v 0 c -1.342,0.776 -2.686,1.428 -4.029,1.956 v 0 c -0.422,0.167 -0.822,0.247 -1.19,0.247 v 0 c -1.151,0 -1.989,-0.786 -2.203,-2.18"
         id="path1010" />
    </clipPath>
    <linearGradient
       x1="0"
       y1="0"
       x2="1"
       y2="0"
       gradientUnits="userSpaceOnUse"
       gradientTransform="matrix(16.595646,-34.20731,-34.20731,-16.595646,539.5578,300.42181)"
       spreadMethod="pad"
       id="linearGradient1022">
      <stop
         style="stop-opacity:1;stop-color:#ff63aa"
         offset="0"
         id="stop1018" />
      <stop
         style="stop-opacity:1;stop-color:#ff4174"
         offset="1"
         id="stop1020" />
    </linearGradient>
    <clipPath
       clipPathUnits="userSpaceOnUse"
       id="clipPath1947">
      <path
         d="m -549.0879,217.9102 h 750 v -500 h -750 z"
         id="path1949"
         style="stroke-width:0.999998" />
    </clipPath>
  </defs>
  <g
     id="g140"
     transform="matrix(1.3333333,0,0,-1.3333333,-884.95154,630.74009)">
    <g
       id="g1986"
       transform="translate(123.93318,177.94208)">
      <g
         id="g1006">
        <g
           id="g1008"
           clip-path="url(#clipPath1012)">
          <g
             id="g1014">
            <g
               id="g1016">
              <path
                 d="m 540.115,292.933 c -0.437,-2.836 -0.446,-5.927 -0.026,-9.258 v 0 c 0.27,-2.159 1.632,-4.517 3.371,-5.839 v 0 c 1.341,-1.02 2.683,-1.919 4.027,-2.695 v 0 c 1.344,-0.776 2.687,-1.429 4.029,-1.957 v 0 c 1.742,-0.687 3.112,0.094 3.394,1.934 v 0 c 0.438,2.836 0.447,5.927 0.025,9.258 v 0 c -0.269,2.159 -1.631,4.518 -3.37,5.839 v 0 c -1.341,1.021 -2.684,1.92 -4.028,2.695 v 0 c -1.342,0.776 -2.686,1.428 -4.029,1.956 v 0 c -0.422,0.167 -0.822,0.247 -1.19,0.247 v 0 c -1.151,0 -1.989,-0.786 -2.203,-2.18"
                 style="fill:url(#linearGradient1022);stroke:none"
                 id="path1024" />
            </g>
          </g>
        </g>
      </g>
      <g
         id="g1050"
         transform="translate(549.0879,282.0898)"
         clip-path="url(#clipPath1947)">
        <path
           d="m 0,0 c 0.11,0.062 0.034,0.323 -0.124,0.415 l -0.699,0.403 0.005,1.522 c 0,0.11 -0.079,0.247 -0.175,0.303 l -1.149,0.663 c -0.096,0.055 -0.175,0.01 -0.176,-0.1 L -2.322,1.688 -3.024,2.089 C -3.18,2.179 -3.257,2.006 -3.147,1.817 l 1.445,-2.503 c 0.034,-0.059 0.079,-0.105 0.124,-0.131 0.044,-0.026 0.089,-0.032 0.124,-0.012 L 0,0 M 1.187,0.938 C 2.143,0.306 2.901,-1.031 2.919,-2.157 2.938,-3.38 2.071,-3.87 1.019,-3.262 l -4.823,2.784 c -1.294,0.748 -2.327,2.562 -2.262,4.016 0.052,1.249 0.916,1.782 2.005,1.291 0.477,0.757 1.415,0.924 2.498,0.299 1.364,-0.788 2.499,-2.563 2.75,-4.19"
           style="fill:#eff4ff;fill-opacity:1;fill-rule:nonzero;stroke:none"
           id="path1052" />
      </g>
    </g>
  </g>
</svg>
