<?xml version="1.0" encoding="UTF-8" standalone="no"?>
<!-- Created with Inkscape (http://www.inkscape.org/) -->

<svg
   version="1.1"
   id="svg132"
   width="20.618958"
   height="29.567799"
   viewBox="0 0 20.618958 29.567799"
   sodipodi:docname="5721502.ai"
   xmlns:inkscape="http://www.inkscape.org/namespaces/inkscape"
   xmlns:sodipodi="http://sodipodi.sourceforge.net/DTD/sodipodi-0.dtd"
   xmlns="http://www.w3.org/2000/svg"
   xmlns:svg="http://www.w3.org/2000/svg">
  <defs
     id="defs136">
    <clipPath
       clipPathUnits="userSpaceOnUse"
       id="clipPath1990">
      <path
         d="m -523.9727,198.1187 h 750 v -500 h -750 z"
         id="path1992"
         style="stroke-width:0.999998" />
    </clipPath>
    <clipPath
       clipPathUnits="userSpaceOnUse"
       id="clipPath2027">
      <path
         d="m -523.9834,193.5786 h 750 v -500 h -750 z"
         id="path2029"
         style="stroke-width:0.999998" />
    </clipPath>
  </defs>
  <sodipodi:namedview
     id="namedview134"
     pagecolor="#505050"
     bordercolor="#eeeeee"
     borderopacity="1"
     inkscape:showpageshadow="0"
     inkscape:pageopacity="0"
     inkscape:pagecheckerboard="0"
     inkscape:deskcolor="#505050"
     showgrid="false" />
  <g
     id="g140"
     inkscape:groupmode="layer"
     inkscape:label="Page 1"
     transform="matrix(1.3333333,0,0,-1.3333333,-850.82654,630.74023)">
    <g
       id="g2052"
       transform="translate(121.89401,164.43014)">
      <g
         id="g1002"
         transform="translate(523.9834,306.4214)"
         clip-path="url(#clipPath2027)">
        <path
           d="m 0,0 c 1.343,-0.775 2.686,-1.674 4.027,-2.695 1.739,-1.322 3.101,-3.68 3.37,-5.839 0.421,-3.331 0.413,-6.422 -0.025,-9.258 -0.282,-1.84 -1.652,-2.621 -3.393,-1.933 -1.343,0.528 -2.686,1.18 -4.03,1.956 -1.344,0.775 -2.686,1.674 -4.027,2.695 -1.739,1.322 -3.101,3.68 -3.371,5.839 -0.42,3.331 -0.411,6.422 0.026,9.258 0.281,1.84 1.652,2.621 3.393,1.934 C -2.688,1.428 -1.344,0.776 0,0"
           style="fill:#ffc21a;fill-opacity:1;fill-rule:nonzero;stroke:none"
           id="path1004" />
      </g>
      <path
         d="M 0,0 C 0.043,-0.025 0.087,-0.061 0.128,-0.107 L 3.191,-3.578 C 3.293,-3.691 3.356,-3.849 3.356,-3.977 L 3.34,-9.951 c -10e-4,-0.183 -0.132,-0.26 -0.294,-0.167 l -1.405,0.811 c -0.162,0.094 -0.292,0.323 -0.292,0.505 l 0.008,2.982 c 0,0.186 -0.129,0.411 -0.292,0.505 l -2.159,1.247 c -0.162,0.093 -0.293,0.019 -0.293,-0.167 l -0.009,-2.982 c 0,-0.183 -0.13,-0.261 -0.293,-0.167 l -1.406,0.811 c -0.162,0.094 -0.292,0.323 -0.291,0.505 l 0.017,5.974 c 0,0.128 0.067,0.21 0.166,0.208 L -0.126,0.04 C -0.087,0.039 -0.044,0.025 0,0"
         style="fill:#eff4ff;fill-opacity:1;fill-rule:nonzero;stroke:none"
         id="path1048"
         transform="translate(523.9727,301.8813)"
         clip-path="url(#clipPath1990)" />
    </g>
  </g>
</svg>
