<?xml version="1.0" encoding="UTF-8" standalone="no"?>
<!-- Created with Inkscape (http://www.inkscape.org/) -->

<svg
   version="1.1"
   id="svg132"
   width="20.619141"
   height="29.568382"
   viewBox="0 0 20.619141 29.568382"
   xmlns="http://www.w3.org/2000/svg"
   xmlns:svg="http://www.w3.org/2000/svg">
  <defs
     id="defs136">
    <clipPath
       clipPathUnits="userSpaceOnUse"
       id="clipPath1955">
      <path
         d="m -504.6602,188.5771 h 750 v -500 h -750 z"
         id="path1957"
         style="stroke-width:0.999998" />
    </clipPath>
    <clipPath
       clipPathUnits="userSpaceOnUse"
       id="clipPath1959">
      <path
         d="m -501.8623,188.832 h 750 v -500 h -750 z"
         id="path1961"
         style="stroke-width:0.999998" />
    </clipPath>
    <clipPath
       clipPathUnits="userSpaceOnUse"
       id="clipPath1963">
      <path
         d="m -499.0645,188.3374 h 750 v -500 h -750 z"
         id="path1965"
         style="stroke-width:0.999998" />
    </clipPath>
    <clipPath
       clipPathUnits="userSpaceOnUse"
       id="clipPath2031">
      <path
         d="m -502.6865,181.4219 h 750 v -500 h -750 z"
         id="path2033"
         style="stroke-width:0.999998" />
    </clipPath>
  </defs>
  <g
     id="g140"
     transform="matrix(1.3333333,0,0,-1.3333333,-919.07709,629.48569)">
    <g
       id="g2047"
       transform="translate(194.37883,151.33254)">
      <g
         id="g998"
         transform="translate(502.6865,318.5781)"
         clip-path="url(#clipPath2031)">
        <path
           d="m 0,0 c 1.343,-0.775 2.686,-1.674 4.027,-2.695 1.74,-1.322 3.101,-3.68 3.371,-5.839 0.42,-3.331 0.412,-6.422 -0.026,-9.258 -0.281,-1.84 -1.652,-2.621 -3.393,-1.934 -1.342,0.529 -2.686,1.181 -4.03,1.957 -1.343,0.775 -2.686,1.674 -4.027,2.695 -1.739,1.322 -3.101,3.68 -3.371,5.839 -0.42,3.331 -0.411,6.422 0.026,9.258 0.281,1.84 1.652,2.621 3.394,1.934 C -2.688,1.428 -1.344,0.776 0,0"
           style="fill:#6098f0;fill-opacity:1;fill-rule:nonzero;stroke:none"
           id="path1000" />
      </g>
      <g
         id="g1034"
         transform="translate(499.0645,311.6626)"
         clip-path="url(#clipPath1963)">
        <path
           d="M 0,0 C 0.359,-0.208 0.65,-0.711 0.649,-1.122 L 0.643,-3.324 c -0.001,-0.413 -0.294,-0.578 -0.654,-0.371 -0.357,0.207 -0.648,0.708 -0.646,1.121 l 0.006,2.202 C -0.65,0.04 -0.357,0.207 0,0"
           style="fill:#eff4ff;fill-opacity:1;fill-rule:nonzero;stroke:none"
           id="path1036" />
      </g>
      <g
         id="g1038"
         transform="translate(501.8623,311.168)"
         clip-path="url(#clipPath1959)">
        <path
           d="M 0,0 C 0.357,-0.206 0.648,-0.708 0.647,-1.121 L 0.638,-4.442 C 0.637,-4.855 0.344,-5.02 -0.014,-4.813 c -0.359,0.207 -0.65,0.709 -0.649,1.122 l 0.01,3.321 C -0.652,0.043 -0.359,0.208 0,0"
           style="fill:#eff4ff;fill-opacity:1;fill-rule:nonzero;stroke:none"
           id="path1040" />
      </g>
      <g
         id="g1042"
         transform="translate(504.6602,311.4229)"
         clip-path="url(#clipPath1955)">
        <path
           d="M 0,0 C 0.359,-0.208 0.648,-0.709 0.647,-1.121 L 0.633,-6.31 c -0.001,-0.413 -0.292,-0.578 -0.652,-0.371 -0.359,0.208 -0.648,0.708 -0.647,1.121 l 0.015,5.189 C -0.65,0.04 -0.359,0.208 0,0"
           style="fill:#eff4ff;fill-opacity:1;fill-rule:nonzero;stroke:none"
           id="path1044" />
      </g>
    </g>
  </g>
</svg>
