<?xml version="1.0" encoding="UTF-8" standalone="no"?>
<!-- Created with Inkscape (http://www.inkscape.org/) -->

<svg
   width="196.85332mm"
   height="204.52747mm"
   viewBox="0 0 196.85332 204.52747"
   version="1.1"
   id="svg1"
   inkscape:version="1.3 (0e150ed6c4, 2023-07-21)"
   sodipodi:docname="is-mobitel.svg"
   xmlns:inkscape="http://www.inkscape.org/namespaces/inkscape"
   xmlns:sodipodi="http://sodipodi.sourceforge.net/DTD/sodipodi-0.dtd"
   xmlns="http://www.w3.org/2000/svg"
   xmlns:svg="http://www.w3.org/2000/svg">
  <sodipodi:namedview
     id="namedview1"
     pagecolor="#d1d1d1"
     bordercolor="#d1d1d1"
     borderopacity="0"
     inkscape:showpageshadow="0"
     inkscape:pageopacity="0"
     inkscape:pagecheckerboard="0"
     inkscape:deskcolor="#d1d1d1"
     inkscape:document-units="mm"
     showgrid="false"
     inkscape:zoom="0.40020585"
     inkscape:cx="1021.9741"
     inkscape:cy="481.00246"
     inkscape:current-layer="layer1">
    <inkscape:grid
       type="axonomgrid"
       id="grid1"
       units="px"
       originx="-672.66217"
       originy="439.03678"
       spacingx="0"
       spacingy="13.229167"
       empcolor="#3f3fff"
       empopacity="0.25098039"
       color="#3f3fff"
       opacity="0.1254902"
       empspacing="5"
       dotted="false"
       gridanglex="30"
       gridanglez="30"
       visible="false" />
  </sodipodi:namedview>
  <defs
     id="defs1">
    <inkscape:path-effect
       effect="fillet_chamfer"
       id="path-effect53"
       is_visible="true"
       lpeversion="1"
       nodesatellites_param="F,0,1,1,0,33.261005,0,1 @ F,0,1,1,0,33.261005,0,1 @ F,0,0,1,0,33.261005,0,1 @ F,0,1,1,0,33.261005,0,1"
       radius="0"
       unit="px"
       method="auto"
       mode="F"
       chamfer_steps="1"
       flexible="false"
       use_knot_distance="true"
       apply_no_radius="true"
       apply_with_radius="true"
       only_selected="false"
       hide_knots="false" />
    <inkscape:path-effect
       effect="fillet_chamfer"
       id="path-effect51"
       is_visible="true"
       lpeversion="1"
       nodesatellites_param="F,0,1,1,0,33.261005,0,1 @ F,0,1,1,0,33.261005,0,1 @ F,0,0,1,0,33.261005,0,1 @ F,0,1,1,0,33.261005,0,1"
       radius="0"
       unit="px"
       method="auto"
       mode="F"
       chamfer_steps="1"
       flexible="false"
       use_knot_distance="true"
       apply_no_radius="true"
       apply_with_radius="true"
       only_selected="false"
       hide_knots="false" />
    <inkscape:path-effect
       effect="fillet_chamfer"
       id="path-effect49"
       is_visible="true"
       lpeversion="1"
       nodesatellites_param="F,0,1,1,0,33.494745,0,1 @ F,0,1,1,0,33.494745,0,1 @ F,0,0,1,0,33.494745,0,1 @ F,0,1,1,0,33.494745,0,1"
       radius="0"
       unit="px"
       method="auto"
       mode="F"
       chamfer_steps="1"
       flexible="false"
       use_knot_distance="true"
       apply_no_radius="true"
       apply_with_radius="true"
       only_selected="false"
       hide_knots="false" />
  </defs>
  <g
     inkscape:label="Layer 1"
     inkscape:groupmode="layer"
     id="layer1"
     style="display:inline"
     transform="translate(-177.9752,116.16181)">
    <g
       id="g48"
       transform="matrix(0.74654812,0,0,0.74652084,408.90821,137.32166)"
       style="stroke-width:1.33952">
      <path
         id="path44"
         style="fill:#2c89a0;stroke:#000000;stroke-width:0.354415px;stroke-linecap:butt;stroke-linejoin:miter;stroke-opacity:1"
         d="m -271.19017,-339.37567 c -3.01389,0.0157 -5.82931,0.94262 -8.20105,2.50269 l -0.007,-0.0202 -21.66534,12.49123 0.0124,0.0568 c 0.005,-0.002 0.01,-0.004 0.0145,-0.007 1.00652,-0.53186 2.07607,-0.93299 3.19619,-1.22835 0.48768,-0.13346 0.97997,-0.24718 1.48466,-0.33124 0.47508,-0.0748 0.94484,-0.15744 1.43247,-0.18655 0.11459,-0.008 0.2284,-0.0152 0.34365,-0.0202 0.70643,-0.026 1.41971,-0.0215 2.14509,0.0537 2.1198,0.21984 4.16946,0.88421 6.01513,1.94976 l 194.765376,112.44791 c 14.178864,8.1863 22.913383,23.3151 22.91333,39.6875 v 54.98269 11.16315 c -1.51e-4,5.83092 -3.13834,10.569186 -7.539074,13.149065 l 21.927343,-12.690185 -0.0186,-0.0238 c 4.915749,-2.4208 8.544019,-7.40263 8.544181,-13.66428 v -66.14583 c 5.3e-5,-16.37237 -8.734522,-31.50125 -22.91333,-39.6875 L -263.5064,-337.34375 c -1.84563,-1.06555 -3.89481,-1.72991 -6.01462,-1.94975 -0.56141,-0.0582 -1.11861,-0.085 -1.66915,-0.0822 z m 156.62197,233.54234 v 39.687497 L -91.654354,-79.375 v -13.273092 z"
         sodipodi:nodetypes="scccccccccsccccccccccccssccccc" />
      <path
         id="path45"
         style="fill:#37abc8;stroke:#000000;stroke-width:0.354415px;stroke-linecap:butt;stroke-linejoin:miter;stroke-opacity:1"
         d="m -292.43486,-326.06434 c -8.98256,-0.93196 -16.78233,6.14784 -16.72198,15.17841 l 0.44235,66.14686 c 0.1095,16.39268 8.88645,31.50317 23.07146,39.72006 l 125.2479,72.72734 45.82718,66.145839 v -39.687509 l 22.93272,13.196105 c 10.166771,5.888902 22.893906,-1.446945 22.89421,-13.196095 v -66.14584 c 5.3e-5,-16.37242 -8.734452,-31.5012 -22.91333,-39.6875 l -194.76538,-112.44791 c -1.84568,-1.06555 -3.89532,-1.72992 -6.01513,-1.94976 z"
         sodipodi:nodetypes="cccsccccccccc" />
      <path
         style="fill:#f9f9f9;stroke:#000000;stroke-width:0.354415px;stroke-linecap:butt;stroke-linejoin:miter;stroke-opacity:1"
         d="m -286.41987,-264.16152 a 57.28553,57.28553 59.578096 0 0 29.0073,49.39847 19.09932,19.09932 148.73446 0 0 28.27668,-17.1692 57.28553,57.28553 59.578093 0 0 -29.0073,-49.39846 19.099316,19.099316 148.73449 0 0 -28.27668,17.16919 z"
         id="path46"
         inkscape:original-d="m -286.41987,-297.65627 v 66.14585 l 57.28398,33.07291 v -66.14582 z"
         inkscape:path-effect="#path-effect49" />
      <path
         style="fill:#f9f9f9;stroke:#000000;stroke-width:0.354415px;stroke-linecap:butt;stroke-linejoin:miter;stroke-opacity:1"
         d="m -217.54681,-224.47862 a 57.284285,57.284285 59.811878 0 0 28.80488,49.51534 19.095588,19.095588 149.43564 0 0 28.4791,-16.81859 57.284286,57.284286 59.811874 0 0 -28.80487,-49.51533 19.095584,19.095584 149.43567 0 0 -28.47911,16.81858 z"
         id="path47"
         inkscape:original-d="m -217.54681,-257.73963 v 66.14585 l 57.28398,33.07291 v -66.14582 z"
         inkscape:path-effect="#path-effect51" />
      <path
         style="fill:#f9f9f9;stroke:#000000;stroke-width:0.354415px;stroke-linecap:butt;stroke-linejoin:miter;stroke-opacity:1"
         d="m -148.80604,-184.79111 a 57.284287,57.284287 59.811878 0 0 28.80488,49.51534 19.095587,19.095587 149.43563 0 0 28.479097,-16.81859 57.284287,57.284287 59.811875 0 0 -28.804867,-49.51533 19.095582,19.095582 149.43567 0 0 -28.47911,16.81858 z"
         id="path48"
         inkscape:original-d="m -148.80604,-218.05212 v 66.14585 l 57.283977,33.07291 v -66.14582 z"
         inkscape:path-effect="#path-effect53" />
    </g>
  </g>
</svg>
