<?xml version="1.0" encoding="UTF-8" standalone="no"?>
<!-- Created with Inkscape (http://www.inkscape.org/) -->

<svg
   width="580.78851mm"
   height="367.80539mm"
   viewBox="0 0 580.78851 367.80539"
   version="1.1"
   id="svg1"
   inkscape:version="1.3 (0e150ed6c4, 2023-07-21)"
   sodipodi:docname="is-mobitel.svg"
   xmlns:inkscape="http://www.inkscape.org/namespaces/inkscape"
   xmlns:sodipodi="http://sodipodi.sourceforge.net/DTD/sodipodi-0.dtd"
   xmlns="http://www.w3.org/2000/svg"
   xmlns:svg="http://www.w3.org/2000/svg">
  <sodipodi:namedview
     id="namedview1"
     pagecolor="#d1d1d1"
     bordercolor="#d1d1d1"
     borderopacity="0"
     inkscape:showpageshadow="0"
     inkscape:pageopacity="0"
     inkscape:pagecheckerboard="0"
     inkscape:deskcolor="#d1d1d1"
     inkscape:document-units="mm"
     showgrid="false"
     inkscape:zoom="0.40020585"
     inkscape:cx="1021.9741"
     inkscape:cy="481.00246"
     inkscape:current-layer="layer1">
    <inkscape:grid
       type="axonomgrid"
       id="grid1"
       units="px"
       originx="101.71165"
       originy="333.98753"
       spacingx="0"
       spacingy="13.229167"
       empcolor="#3f3fff"
       empopacity="0.25098039"
       color="#3f3fff"
       opacity="0.1254902"
       empspacing="5"
       dotted="false"
       gridanglex="30"
       gridanglez="30"
       visible="false" />
  </sodipodi:namedview>
  <defs
     id="defs1">
    <inkscape:path-effect
       effect="fillet_chamfer"
       id="path-effect6"
       is_visible="true"
       lpeversion="1"
       nodesatellites_param="F,0,1,1,0,6.7443628,0,1 @ F,0,1,1,0,6.7443628,0,1 @ F,0,1,1,0,6.7443628,0,1 @ F,0,0,1,0,6.7443628,0,1"
       radius="0"
       unit="px"
       method="auto"
       mode="F"
       chamfer_steps="1"
       flexible="false"
       use_knot_distance="true"
       apply_no_radius="true"
       apply_with_radius="true"
       only_selected="false"
       hide_knots="false" />
    <inkscape:path-effect
       effect="fillet_chamfer"
       id="path-effect5"
       is_visible="true"
       lpeversion="1"
       nodesatellites_param="F,0,1,1,0,6.6788376,0,1 @ F,0,1,1,0,6.6788376,0,1 @ F,0,1,1,0,6.6788376,0,1 @ F,0,0,1,0,6.6788376,0,1"
       radius="0"
       unit="px"
       method="auto"
       mode="F"
       chamfer_steps="1"
       flexible="false"
       use_knot_distance="true"
       apply_no_radius="true"
       apply_with_radius="true"
       only_selected="false"
       hide_knots="false" />
    <filter
       inkscape:collect="always"
       style="color-interpolation-filters:sRGB"
       id="filter54"
       x="-0.0097540702"
       y="-0.015659673"
       width="1.0195081"
       height="1.0313193">
      <feGaussianBlur
         inkscape:collect="always"
         stdDeviation="2.3593628"
         id="feGaussianBlur54" />
    </filter>
  </defs>
  <g
     inkscape:label="Layer 1"
     inkscape:groupmode="layer"
     id="layer1"
     style="display:inline"
     transform="translate(26.911206,88.367533)">
    <g
       id="g1"
       inkscape:label="phone">
      <path
         id="path53"
         style="opacity:1;mix-blend-mode:normal;fill:#1a1a1a;fill-opacity:1;stroke:none;stroke-width:0.268958px;stroke-linecap:butt;stroke-linejoin:miter;stroke-opacity:1;filter:url(#filter54)"
         d="m 368.52601,-76.065353 c -7.63787,0 -15.27545,4.409536 -78.33527,40.817147 C 227.1309,1.1594057 108.65596,69.560702 45.642361,105.94162 c -63.011366,36.37963 -70.558293,40.73683 -70.512492,45.11973 1e-6,1.5e-4 -2e-6,3.6e-4 0,5.1e-4 v 26.45627 5.2e-4 c 0.0059,0.54748 0.130017,1.09565 0.398942,1.66759 l 5.17e-4,5.2e-4 c 3.05e-4,6.5e-4 7.6e-4,0.001 0.001,0.002 0.268923,0.57106 0.681772,1.1662 1.265039,1.80867 6.82e-4,7.5e-4 0.0014,0.001 0.0021,0.002 0.0011,0.001 0.003,0.003 0.0041,0.004 0.584515,0.64292 1.339088,1.33349 2.2903,2.09496 0.953256,0.7631 2.103951,1.59761 3.477824,2.52698 2.747744,1.85875 6.389095,4.09706 11.1336871,6.90449 4.7445927,2.80743 10.5923057,6.18398 17.7529209,10.31823 v -5.2e-4 c 28.642509,16.53701 78.288018,45.19988 106.929891,61.73628 28.64193,16.53643 36.27983,20.94657 43.91774,20.94653 7.63792,-4e-5 15.27531,-4.40998 78.28876,-40.79079 63.01345,-36.38085 166.21028,-95.96128 237.30644,-137.0087 h 5.2e-4 c 17.77378,-10.261735 31.52014,-18.198505 42.14213,-24.400047 h 5.2e-4 c 10.62185,-6.201679 18.11928,-10.668531 23.39499,-13.990084 h 5.2e-4 c 2.62662,-1.653705 4.69943,-3.022197 6.33605,-4.18114 0.0112,-0.0079 0.024,-0.0169 0.0351,-0.02481 1.63321,-1.157917 2.82807,-2.105236 3.69331,-2.914034 0.86753,-0.810933 1.4056,-1.483518 1.72651,-2.090828 0.32091,-0.607312 0.42478,-1.149447 0.42478,-1.700672 v -26.456783 -10e-4 C 555.65256,27.562063 548.01404,23.152013 519.37361,6.6164498 490.73108,-9.9203223 441.08681,-38.58251 412.44421,-55.119316 383.80162,-71.656123 376.16384,-76.065325 368.52597,-76.065325 Z m 186.60928,109.85221 c -0.0934,0.164216 -0.33833,0.388307 -0.46561,0.56379 0.12763,-0.177221 0.37263,-0.398044 0.46561,-0.56379 z m -2.07119,2.322855 c -0.31682,0.281413 -0.84914,0.665888 -1.24541,0.982369 0.40019,-0.320083 0.92704,-0.698403 1.24541,-0.982369 z m -4.44469,3.354834 c -0.64685,0.444323 -1.52898,1.011903 -2.29806,1.516704 0.77958,-0.511814 1.64484,-1.067423 2.29806,-1.516704 z m -6.88899,4.440556 c -0.70171,0.436773 -1.08982,0.712359 -1.86397,1.187008 -0.0158,-0.0095 -0.0457,-0.02666 -0.0615,-0.03617 0.49271,-0.303763 1.46423,-0.863488 1.92546,-1.150834 z M -24.869098,151.06548 c 0.0056,0.48188 0.144419,0.96893 0.3514,1.46761 -0.207659,-0.49833 -0.345661,-0.98664 -0.3514,-1.46761 z m 0.572575,1.91358 c 0.138638,0.25958 0.367352,0.53969 0.567924,0.81235 -0.198996,-0.27017 -0.429756,-0.55508 -0.567924,-0.81235 z m 2.515609,2.86442 c 0.199734,0.17628 0.344853,0.33508 0.567924,0.51935 -0.219729,-0.18141 -0.370757,-0.34566 -0.567924,-0.51935 z m 4.862752,3.64319 c 2.013796,1.34757 4.917709,3.10337 7.92148,4.91236 -0.01288,0.008 -0.03882,0.0226 -0.05168,0.0305 -3.20934,-1.92663 -5.750951,-3.52643 -7.869804,-4.94285 z"
         transform="matrix(0.98119485,0,0,0.98628329,3.0477913,-7.7607477)" />
      <path
         id="path8"
         style="opacity:1;fill:#b3b3b3;fill-opacity:1;stroke:#000000;stroke-width:0.264583px;stroke-linecap:butt;stroke-linejoin:miter;stroke-opacity:1"
         d="m 366.61742,-61.736283 c -7.63787,0 -15.27552,4.410089 -78.33527,40.817663 -63.05978,36.407576 -181.53484,104.808951 -244.548385,141.18983 -28.390085,16.39104 -44.44072963,25.71 -54.690719,32.03112 -12.020853,-7.21636 -15.789422,-10.30666 -15.821773,-13.36921 v 26.45782 5.2e-4 c 0.0059,0.54749 0.130017,1.09565 0.398942,1.66759 l 5.17e-4,5.2e-4 c 3.05e-4,6.5e-4 7.27e-4,0.001 0.001,0.002 0.268923,0.57106 0.681771,1.1662 1.265039,1.80867 6.82e-4,7.5e-4 0.0014,0.001 0.0021,0.002 0.0011,0.001 0.003,0.003 0.0041,0.004 0.584515,0.64292 1.339087,1.3335 2.2903,2.09497 0.953257,0.7631 2.10395,1.5976 3.477824,2.52697 2.747747,1.85875 6.38909,4.09706 11.1336871,6.90449 4.7445975,2.80744 10.5922984,6.18399 17.7529215,10.31824 v -5.2e-4 C 38.190241,207.25741 87.835722,235.92 116.47764,252.45642 c 28.64195,16.53644 36.27982,20.94657 43.91774,20.94653 7.63793,-4e-5 15.27525,-4.40994 78.28876,-40.79079 63.01351,-36.38088 166.2102,-95.96124 237.30644,-137.008693 1.7e-4,-9.4e-5 3.6e-4,9.4e-5 5.2e-4,0 17.7738,-10.261757 31.52013,-18.198513 42.14213,-24.400061 1.7e-4,-1.01e-4 3.5e-4,1.01e-4 5.2e-4,0 10.62182,-6.201445 18.11923,-10.668288 23.39495,-13.989844 1.5e-4,-9.4e-5 3.7e-4,9.4e-5 5.2e-4,0 2.62662,-1.653707 4.69943,-3.022196 6.33605,-4.18114 0.0112,-0.0079 0.024,-0.0169 0.0351,-0.0248 1.63321,-1.157918 2.82807,-2.105235 3.69331,-2.914034 0.86753,-0.810934 1.4056,-1.483517 1.72651,-2.090828 0.32091,-0.607312 0.42478,-1.149447 0.42478,-1.700672 V 19.84375 c 0,2.429219 -2.08755,4.721644 -15.78715,13.121163 -5.25021,-3.16459 -11.56897,-6.866724 -20.4928,-12.018905 C 488.82255,4.4092527 439.17824,-24.252969 410.53566,-40.789758 381.8931,-57.326549 374.25528,-61.736283 366.61742,-61.736283 Z" />
      <path
         style="opacity:1;fill:#cccccc;fill-opacity:1;stroke:#000000;stroke-width:0.264583px;stroke-linecap:butt;stroke-linejoin:miter;stroke-opacity:1"
         d="m 116.47741,225.99996 c 28.64199,16.53646 36.27985,20.94617 43.91779,20.94613 7.63795,-4e-5 15.2755,-4.40958 78.28913,-40.79051 63.01363,-36.38094 166.20997,-95.96137 237.30637,-137.008902 71.0964,-41.04753 77.75439,-44.891522 77.75431,-49.301278 -7e-5,-4.409756 -7.63764,-8.819313 -36.2802,-25.356102 -28.64255,-16.536789 -78.28658,-45.198782 -106.9292,-61.735605 -28.64262,-16.536823 -36.2803,-20.946442 -43.91818,-20.946442 -7.63787,0 -15.27557,4.409628 -78.33546,40.817276 C 225.22207,-10.967825 106.74746,57.433518 43.733792,93.814478 -19.27988,130.19544 -26.825053,134.55164 -26.77871,138.9347 c 0.04634,4.38305 7.683899,8.7926 36.3264605,25.32939 28.6425615,16.53679 78.2876755,45.19941 106.9296595,61.73587 z"
         id="path4"
         sodipodi:nodetypes="scsccssccscss" />
      <path
         style="fill:#b3b3b3;fill-opacity:1;stroke:#000000;stroke-width:0.264583px;stroke-linecap:butt;stroke-linejoin:miter;stroke-opacity:1"
         d="m 51.611223,168.63975 a 11.456977,11.456977 0.32134429 0 1 11.456794,0.0643 l 45.715893,26.39408 a 3.8560268,3.8560268 90.000013 0 1 0,6.67884 11.456982,11.456982 0.3213398 0 1 -11.456803,-0.0643 L 51.611222,175.31859 a 3.8560278,3.8560278 90.000008 0 1 1e-6,-6.67884 z"
         id="path2"
         inkscape:path-effect="#path-effect5"
         inkscape:original-d="m 45.827179,171.97917 11.456795,-6.61458 57.283976,33.07292 -11.4568,6.61458 z" />
      <path
         style="fill:#666666;stroke:#000000;stroke-width:0.264583px;stroke-linecap:butt;stroke-linejoin:miter;stroke-opacity:1"
         d="M 11.456795,125.67709 183.30872,224.89584 515.55578,33.072919 343.70385,-66.145835 Z"
         id="path3" />
      <path
         style="fill:#b3b3b3;fill-opacity:1;stroke:#000000;stroke-width:0.264583px;stroke-linecap:butt;stroke-linejoin:miter;stroke-opacity:1"
         d="m 418.2854,-43.059685 a 11.457537,11.457537 0.64900894 0 1 11.4568,0.129781 l 45.60239,26.328556 a 3.8938582,3.8938582 90.000013 0 1 0,6.7443611 11.457537,11.457537 0.64900758 0 1 -11.4568,-0.1297804 L 418.2854,-36.315324 a 3.893858,3.893858 90.000014 0 1 0,-6.744361 z"
         id="path5"
         inkscape:path-effect="#path-effect6"
         inkscape:original-d="m 412.44461,-39.687506 11.4568,-6.61458 57.28397,33.07292 -11.4568,6.6145805 z" />
    </g>
  </g>
</svg>
